<?xml version="1.0" encoding="UTF-8"?>
<svg width="25px" height="25px" viewBox="0 0 32 32" version="1.1" xmlns="http://www.w3.org/2000/svg" xmlns:xlink="http://www.w3.org/1999/xlink">
    <title>danger</title>
    <g id="Page-1" stroke="none" stroke-width="1" fill="none" fill-rule="evenodd">
        <g id="danger" transform="translate(1.000000, 1.000000)" fill-rule="nonzero">
            <circle id="Oval" stroke="#FFFFFF" stroke-width="2" fill="#F56C6C" cx="15" cy="15" r="15"></circle>
			 <path fill="#FFFFFF" d="m16.68297,14.99953l4.20185,-4.23811c0.4644,-0.4684 0.4644,-1.22909 0,-1.69749s-1.21857,-0.4684 -1.68297,0l-4.20185,4.23811l-4.20185,-4.23811c-0.4644,-0.4684 -1.21857,-0.4684 -1.68297,0s-0.4644,1.22909 0,1.69749l4.20185,4.23811l-4.20185,4.23811c-0.4644,0.4684 -0.4644,1.22909 0,1.69749c0.23034,0.23233 0.53498,0.35224 0.83963,0.35224s0.60929,-0.11616 0.83963,-0.35224l4.20557,-4.23811l4.20185,4.23811c0.23034,0.23233 0.53498,0.35224 0.83963,0.35224s0.60929,-0.11616 0.83963,-0.35224c0.4644,-0.4684 0.4644,-1.22909 0,-1.69749l-4.19814,-4.23811z"></path>
			
		
     
        </g>
    </g>
</svg>
